<svg xmlns="http://www.w3.org/2000/svg" aria-hidden="true" style="position:absolute;width:0;height:0;overflow:hidden">
  <defs>
    <symbol id="icon-play" viewBox="0 0 28 32">
<path d="M0.473 31.855v-31.492l27.273 15.746-27.273 15.746z"></path>
</symbol>
<symbol id="icon-arrow-left" viewBox="0 0 60 32">
<path d="M15.222 1.724c0.25 0.104 0.478 0.256 0.669 0.448s0.344 0.419 0.448 0.669 0.157 0.519 0.157 0.79c0 0.271-0.053 0.54-0.157 0.79s-0.256 0.478-0.448 0.669l-8.851 8.847h50.624c0.547 0 1.071 0.217 1.458 0.604s0.604 0.911 0.604 1.458-0.217 1.071-0.604 1.458c-0.386 0.387-0.911 0.604-1.458 0.604h-50.624l8.851 8.847c0.387 0.387 0.605 0.912 0.605 1.459s-0.217 1.072-0.605 1.459c-0.387 0.387-0.912 0.605-1.459 0.605s-1.072-0.218-1.459-0.605l-12.368-12.368c-0.192-0.192-0.344-0.419-0.448-0.669s-0.157-0.519-0.157-0.79c0-0.271 0.053-0.54 0.157-0.79s0.256-0.478 0.448-0.669l12.368-12.368c0.191-0.192 0.419-0.344 0.669-0.448s0.519-0.157 0.79-0.157c0.271 0 0.54 0.054 0.79 0.157z"></path>
</symbol>
<symbol id="icon-arrow-right" viewBox="0 0 67 32">
<path d="M49.337 0.174c-0.278 0.115-0.53 0.284-0.742 0.497s-0.382 0.464-0.497 0.742-0.175 0.575-0.175 0.876c0 0.301 0.059 0.598 0.175 0.876s0.284 0.53 0.497 0.742l9.812 9.808h-56.121c-0.606 0-1.187 0.241-1.616 0.669s-0.669 1.010-0.669 1.616c0 0.606 0.241 1.187 0.669 1.616s1.010 0.669 1.616 0.669h56.122l-9.812 9.808c-0.429 0.429-0.67 1.011-0.67 1.618s0.241 1.189 0.67 1.618c0.429 0.429 1.011 0.67 1.618 0.67s1.189-0.241 1.618-0.67l13.711-13.711c0.213-0.212 0.382-0.465 0.497-0.742s0.174-0.575 0.174-0.876c0-0.301-0.059-0.598-0.174-0.876s-0.284-0.53-0.497-0.742l-13.711-13.711c-0.212-0.213-0.465-0.382-0.742-0.497s-0.575-0.174-0.876-0.174c-0.301 0-0.598 0.059-0.876 0.174z"></path>
</symbol>
<symbol id="icon-audit" viewBox="0 0 32 32">
<path fill="#fff" style="fill: var(--color1, #fff)" d="M0 0h32v32h-32v-32z"></path>
<path fill="#ff7b52" style="fill: var(--color2, #ff7b52)" d="M31.467 0c-0 0-0 0-0 0h-30.933c-0.294-0-0.533 0.239-0.533 0.533 0 0 0 0 0 0v10.667h1.067v-10.133h29.867v11.733h-18.667v1.067h19.2c0.294 0 0.533-0.239 0.533-0.533 0-0 0-0 0-0v-12.8c0-0.294-0.239-0.533-0.533-0.533z"></path>
<path fill="#ff7b52" style="fill: var(--color2, #ff7b52)" d="M28.267 2.667h-10.667v1.067h10.667v-1.067z"></path>
<path fill="#ff7b52" style="fill: var(--color2, #ff7b52)" d="M29.867 5.867h-10.667v1.067h10.667v-1.067z"></path>
<path fill="#ff7b52" style="fill: var(--color2, #ff7b52)" d="M27.733 9.067h-10.667v1.067h10.667v-1.067z"></path>
<path fill="#ff7b52" style="fill: var(--color2, #ff7b52)" d="M17.024 4.598c-0.365-0.878-1.373-1.293-2.25-0.928-0.015 0.006-0.030 0.013-0.045 0.019l-4.325 2.243c0.171-0.353 0.26-0.741 0.262-1.133 0-1.473-1.194-2.667-2.667-2.667s-2.667 1.194-2.667 2.667c0.002 0.579 0.194 1.141 0.547 1.6h-0.022c-1.514 0.010-2.865 0.951-3.4 2.368l-1.424 4.907c-0.339 0.88 0.1 1.869 0.98 2.208 0.401 0.155 0.846 0.152 1.246-0.007 0.459-0.185 0.817-0.559 0.981-1.026l0.558-1.775v7.719c-0.459-0.353-1.021-0.545-1.6-0.547-1.471-0.002-2.664 1.188-2.667 2.659-0.001 0.72 0.29 1.41 0.806 1.912-0.819 0.419-1.336 1.26-1.339 2.179v4.469c-0 0.294 0.239 0.533 0.533 0.533 0 0 0 0 0 0h5.333c0.294 0 0.533-0.239 0.533-0.533 0-0 0-0 0-0v-4.469c-0.003-0.756-0.354-1.468-0.952-1.931h4.037c-0.598 0.462-0.949 1.175-0.952 1.931v4.469c-0 0.294 0.239 0.533 0.533 0.533 0 0 0 0 0 0h5.333c0.294 0 0.533-0.239 0.533-0.533 0-0 0-0 0-0v-4.469c-0.003-0.92-0.52-1.761-1.339-2.179 1.053-1.028 1.073-2.715 0.046-3.768-0.633-0.648-1.552-0.931-2.44-0.749v-10.91l4.896-2.542c0.878-0.365 1.293-1.373 0.928-2.25zM8 3.2c0.884 0 1.6 0.716 1.6 1.6s-0.716 1.6-1.6 1.6c-0.883-0.001-1.599-0.717-1.6-1.6s0.716-1.6 1.6-1.6zM3.2 21.313c0.884 0 1.6 0.716 1.6 1.6s-0.716 1.6-1.6 1.6-1.6-0.716-1.6-1.6c0.001-0.883 0.717-1.599 1.6-1.6zM5.333 30.933h-4.267v-3.936c0.001-0.771 0.626-1.396 1.398-1.397h1.471c0.771 0.001 1.397 0.626 1.398 1.397v3.936zM13.867 26.997v3.936h-4.267v-3.936c0.001-0.771 0.626-1.396 1.398-1.397h1.471c0.771 0.001 1.397 0.626 1.398 1.397zM11.733 21.313c0.883 0.001 1.599 0.717 1.6 1.6s-0.716 1.6-1.6 1.6c-0.884 0-1.6-0.716-1.6-1.6s0.716-1.6 1.6-1.6zM16.048 5.488c-0.071 0.183-0.218 0.327-0.403 0.395l-5.225 2.71c-0.177 0.092-0.288 0.274-0.288 0.473v11.727c-0.999 0.739-1.345 2.076-0.83 3.206h-0.77v-9.067h-1.067v9.067h-1.837c0.152-0.335 0.232-0.699 0.235-1.067h0.002v-13.333c-0-0.295-0.239-0.533-0.533-0.533-0.233 0-0.439 0.151-0.509 0.373l-1.593 5.068c-0.121 0.333-0.488 0.505-0.821 0.384-0.023-0.008-0.046-0.018-0.068-0.029-0.308-0.159-0.438-0.53-0.298-0.847l1.424-4.907c0.384-0.986 1.332-1.637 2.39-1.642h3.776c0.085 0 0.17-0.020 0.246-0.060l5.301-2.752c0.318-0.133 0.685 0.003 0.839 0.311 0.082 0.162 0.092 0.352 0.028 0.522z"></path>
<path fill="#ff7b52" style="fill: var(--color2, #ff7b52)" d="M22.128 24.818c1.055-1.028 1.077-2.716 0.049-3.771s-2.716-1.077-3.771-0.049c-1.055 1.028-1.077 2.716-0.049 3.771 0.016 0.017 0.033 0.033 0.049 0.049-0.819 0.419-1.336 1.26-1.339 2.179v4.469c-0 0.294 0.239 0.533 0.533 0.533 0 0 0 0 0 0h5.333c0.294 0 0.533-0.239 0.533-0.533 0-0 0-0 0-0v-4.469c-0.003-0.92-0.52-1.761-1.339-2.179zM20.267 21.314c0.884 0 1.6 0.716 1.6 1.6s-0.716 1.6-1.6 1.6c-0.884 0-1.6-0.716-1.6-1.6s0.717-1.599 1.6-1.6zM22.4 30.933h-4.267v-3.936c0.001-0.771 0.626-1.396 1.398-1.397h1.471c0.771 0.001 1.397 0.626 1.398 1.397v3.936z"></path>
<path fill="#ff7b52" style="fill: var(--color2, #ff7b52)" d="M30.661 24.818c1.055-1.028 1.077-2.716 0.049-3.771s-2.716-1.077-3.771-0.049c-1.055 1.028-1.077 2.716-0.049 3.771 0.016 0.017 0.033 0.033 0.049 0.049-0.819 0.419-1.336 1.26-1.339 2.179v4.469c-0 0.294 0.239 0.533 0.533 0.533 0 0 0 0 0 0h5.333c0.294 0 0.533-0.239 0.533-0.533 0-0 0-0 0-0v-4.469c-0.003-0.92-0.52-1.761-1.339-2.179zM28.8 21.314c0.884 0 1.6 0.716 1.6 1.6s-0.716 1.6-1.6 1.6c-0.884 0-1.6-0.716-1.6-1.6s0.717-1.599 1.6-1.6zM30.933 30.933h-4.267v-3.936c0.001-0.771 0.626-1.396 1.398-1.397h1.471c0.771 0.001 1.397 0.626 1.398 1.397v3.936z"></path>
</symbol>
  </defs>
</svg>