<svg xmlns="http://www.w3.org/2000/svg" aria-hidden="true" style="position:absolute;width:0;height:0;overflow:hidden">
  <defs>
    <symbol id="icon-play" viewBox="0 0 28 32">
<path d="M0.473 31.855v-31.492l27.273 15.746-27.273 15.746z"></path>
</symbol>
<symbol id="icon-risk" viewBox="0 0 32 32">
<path d="M31.467 12.8h-9.067v-1.6c0-0.171-0.082-0.331-0.22-0.431l-5.647-4.107v-1.862h5.867c0.295 0 0.533-0.239 0.533-0.533v-3.2c0-0.295-0.239-0.533-0.533-0.533h-5.867c0-0.295-0.239-0.533-0.533-0.533s-0.533 0.239-0.533 0.533v6.129l-5.647 4.107c-0.138 0.1-0.22 0.261-0.22 0.431v1.6h-9.067c-0.295 0-0.533 0.239-0.533 0.533v18.133c0 0.295 0.239 0.533 0.533 0.533h30.933c0.295 0 0.533-0.239 0.533-0.533v-18.133c0-0.295-0.239-0.533-0.533-0.533zM16.533 1.6h5.333v2.133h-5.333v-2.133zM9.6 30.933h-8.533v-17.067h8.533v17.067zM18.133 30.933h-4.267v-5.333h4.267v5.333zM21.333 30.933h-2.133v-5.867c0-0.295-0.239-0.533-0.533-0.533h-5.333c-0.295 0-0.533 0.239-0.533 0.533v5.867h-2.133v-19.462l5.333-3.879 5.333 3.879v19.462zM30.933 30.933h-8.533v-17.067h8.533v17.067z"></path>
<path d="M4.8 15.467h-2.133v1.067h2.133v-1.067z"></path>
<path d="M8 15.467h-2.133v1.067h2.133v-1.067z"></path>
<path d="M4.8 17.6h-2.133v1.067h2.133v-1.067z"></path>
<path d="M8 17.6h-2.133v1.067h2.133v-1.067z"></path>
<path d="M4.8 19.733h-2.133v1.067h2.133v-1.067z"></path>
<path d="M8 19.733h-2.133v1.067h2.133v-1.067z"></path>
<path d="M4.8 21.867h-2.133v1.067h2.133v-1.067z"></path>
<path d="M8 21.867h-2.133v1.067h2.133v-1.067z"></path>
<path d="M4.8 24h-2.133v1.067h2.133v-1.067z"></path>
<path d="M8 24h-2.133v1.067h2.133v-1.067z"></path>
<path d="M26.133 15.467h-2.133v1.067h2.133v-1.067z"></path>
<path d="M29.333 15.467h-2.133v1.067h2.133v-1.067z"></path>
<path d="M26.133 17.6h-2.133v1.067h2.133v-1.067z"></path>
<path d="M29.333 17.6h-2.133v1.067h2.133v-1.067z"></path>
<path d="M26.133 19.733h-2.133v1.067h2.133v-1.067z"></path>
<path d="M29.333 19.733h-2.133v1.067h2.133v-1.067z"></path>
<path d="M26.133 21.867h-2.133v1.067h2.133v-1.067z"></path>
<path d="M29.333 21.867h-2.133v1.067h2.133v-1.067z"></path>
<path d="M26.133 24h-2.133v1.067h2.133v-1.067z"></path>
<path d="M29.333 24h-2.133v1.067h2.133v-1.067z"></path>
<path d="M12.267 16c0.002 2.061 1.672 3.731 3.733 3.733 2.062 0 3.733-1.671 3.733-3.733s-1.671-3.733-3.733-3.733c-2.062 0-3.733 1.671-3.733 3.733zM18.667 16c0 1.473-1.194 2.667-2.667 2.667s-2.667-1.194-2.667-2.667c0.002-1.472 1.195-2.665 2.667-2.667 1.473 0 2.667 1.194 2.667 2.667z"></path>
<path d="M15.467 15.467h-1.067v1.067h2.133v-2.667h-1.067v1.6z"></path>
</symbol>
<symbol id="icon-compliance" viewBox="0 0 32 32">
<path d="M15.556 3.6v3.289l-2.889 2c-2 1.422-2.844 2.267-2.889 2.978 0 0.933-0.178 0.978-4.756 1.111l-4.8 0.133v18.667h31.556v-18.667l-4.756-0.133c-4.444-0.089-4.8-0.178-4.8-1.022 0-0.578-1.022-1.6-2.889-2.978-2.356-1.689-2.889-2.311-2.889-3.289 0-1.244 0-1.244 3.111-1.244h3.111v-3.556h-2.844c-1.556 0-3.156-0.133-3.556-0.267-0.622-0.222-0.711 0.178-0.711 2.978zM22.133 2.756l0.133 1.244h-5.822v-2.711l2.8 0.133c2.622 0.133 2.756 0.178 2.889 1.333zM19.067 9.556l2.267 1.644v19.911h-1.111c-1.067 0-1.111-0.089-1.111-3.111v-3.111h-6.222v3.111c0 3.022-0.044 3.111-1.111 3.111h-1.111v-19.911l2.578-1.822c1.378-1.022 2.756-1.733 3.067-1.644 0.267 0.133 1.511 0.933 2.756 1.822zM9.778 22.444v8.667h-8.889v-17.333h8.889v8.667zM31.111 22.444v8.667h-8.889v-17.333h8.889v8.667zM18.222 28.222v2.889h-4.444v-5.778h4.444v2.889z"></path>
<path d="M13.556 13.556c-2.222 2.178-0.667 6 2.444 6 0.844 0 1.778-0.4 2.444-1.111 0.711-0.667 1.111-1.6 1.111-2.444s-0.4-1.778-1.111-2.444c-0.667-0.711-1.6-1.111-2.444-1.111s-1.778 0.4-2.444 1.111zM17.956 14.044c0.889 0.889 0.889 3.022 0 3.911s-3.022 0.889-3.911 0c-0.889-0.889-0.889-3.022 0-3.911 0.356-0.4 1.244-0.711 1.956-0.711s1.6 0.311 1.956 0.711z"></path>
<path d="M15.556 14.889c0 0.356-0.178 0.667-0.444 0.667-0.222 0-0.444 0.178-0.444 0.444 0 0.222 0.4 0.444 0.889 0.444 0.667 0 0.889-0.311 0.889-1.111 0-0.622-0.178-1.111-0.444-1.111-0.222 0-0.444 0.311-0.444 0.667z"></path>
<path d="M2.667 16c0 0.222 0.4 0.444 0.889 0.444s0.889-0.222 0.889-0.444c0-0.267-0.4-0.444-0.889-0.444s-0.889 0.178-0.889 0.444z"></path>
<path d="M6.222 16c0 0.222 0.4 0.444 0.889 0.444s0.889-0.222 0.889-0.444c0-0.267-0.4-0.444-0.889-0.444s-0.889 0.178-0.889 0.444z"></path>
<path d="M2.667 18.222c0 0.222 0.4 0.444 0.889 0.444s0.889-0.222 0.889-0.444c0-0.267-0.4-0.444-0.889-0.444s-0.889 0.178-0.889 0.444z"></path>
<path d="M6.222 18.222c0 0.222 0.4 0.444 0.889 0.444s0.889-0.222 0.889-0.444c0-0.267-0.4-0.444-0.889-0.444s-0.889 0.178-0.889 0.444z"></path>
<path d="M3.022 20.311c0.267 0.089 0.8 0.089 1.111 0 0.267-0.133 0.044-0.222-0.578-0.222s-0.844 0.089-0.533 0.222z"></path>
<path d="M6.578 20.311c0.267 0.089 0.8 0.089 1.111 0 0.267-0.133 0.044-0.222-0.578-0.222s-0.844 0.089-0.533 0.222z"></path>
<path d="M3.022 22.533c0.267 0.089 0.8 0.089 1.111 0 0.267-0.133 0.044-0.222-0.578-0.222s-0.844 0.089-0.533 0.222z"></path>
<path d="M6.578 22.533c0.267 0.089 0.8 0.089 1.111 0 0.267-0.133 0.044-0.222-0.578-0.222s-0.844 0.089-0.533 0.222z"></path>
<path d="M2.667 24.444c0 0.222 0.4 0.444 0.889 0.444s0.889-0.222 0.889-0.444c0-0.267-0.4-0.444-0.889-0.444s-0.889 0.178-0.889 0.444z"></path>
<path d="M6.222 24.444c0 0.222 0.4 0.444 0.889 0.444s0.889-0.222 0.889-0.444c0-0.267-0.4-0.444-0.889-0.444s-0.889 0.178-0.889 0.444z"></path>
<path d="M24 16c0 0.222 0.4 0.444 0.889 0.444s0.889-0.222 0.889-0.444c0-0.267-0.4-0.444-0.889-0.444s-0.889 0.178-0.889 0.444z"></path>
<path d="M27.556 16c0 0.222 0.4 0.444 0.889 0.444s0.889-0.222 0.889-0.444c0-0.267-0.4-0.444-0.889-0.444s-0.889 0.178-0.889 0.444z"></path>
<path d="M24 18.222c0 0.222 0.4 0.444 0.889 0.444s0.889-0.222 0.889-0.444c0-0.267-0.4-0.444-0.889-0.444s-0.889 0.178-0.889 0.444z"></path>
<path d="M27.556 18.222c0 0.222 0.4 0.444 0.889 0.444s0.889-0.222 0.889-0.444c0-0.267-0.4-0.444-0.889-0.444s-0.889 0.178-0.889 0.444z"></path>
<path d="M24.356 20.311c0.267 0.089 0.8 0.089 1.111 0 0.267-0.133 0.044-0.222-0.578-0.222s-0.844 0.089-0.533 0.222z"></path>
<path d="M27.911 20.311c0.267 0.089 0.8 0.089 1.111 0 0.267-0.133 0.044-0.222-0.578-0.222s-0.844 0.089-0.533 0.222z"></path>
<path d="M24.356 22.533c0.267 0.089 0.8 0.089 1.111 0 0.267-0.133 0.044-0.222-0.578-0.222s-0.844 0.089-0.533 0.222z"></path>
<path d="M27.911 22.533c0.267 0.089 0.8 0.089 1.111 0 0.267-0.133 0.044-0.222-0.578-0.222s-0.844 0.089-0.533 0.222z"></path>
<path d="M24 24.444c0 0.222 0.4 0.444 0.889 0.444s0.889-0.222 0.889-0.444c0-0.267-0.4-0.444-0.889-0.444s-0.889 0.178-0.889 0.444z"></path>
<path d="M27.556 24.444c0 0.222 0.4 0.444 0.889 0.444s0.889-0.222 0.889-0.444c0-0.267-0.4-0.444-0.889-0.444s-0.889 0.178-0.889 0.444z"></path>
</symbol>
<symbol id="icon-sox" viewBox="0 0 32 32">
<path d="M31.987 25.743v-2.816h-3.003v-1.877h-1.001v-1.564h1.001v-2.816h-7.486v0.939h6.548v0.939h-19.42v0.939h18.419v1.564h-20.43c-0.431 0-0.782-0.351-0.782-0.782s0.351-0.782 0.782-0.782h1.073v-0.939h-1.073c-0.949 0-1.721 0.772-1.721 1.721s0.772 1.721 1.721 1.721h21.431v0.939h-16.175v0.939h19.178v0.939h-26.499c-1.466 0-2.659 1.193-2.659 2.659s1.193 2.659 2.659 2.659h22.106v-0.939h-22.106c-0.949 0-1.721-0.772-1.721-1.721s0.772-1.721 1.721-1.721h25.498v1.564h-20.805v0.939h20.805v0.939h-2.454v0.939h3.455v0.939h-26.5c-1.984 0-3.598-1.614-3.598-3.598s1.614-3.598 3.598-3.598h6.382v-0.939h-4.317c-1.466 0-2.659-1.193-2.659-2.659s1.193-2.659 2.659-2.659h13.945v-0.939h-13.945c-1.984 0-3.598 1.614-3.598 3.598 0 1.060 0.461 2.014 1.193 2.673-2.343 0.175-4.197 2.135-4.197 4.522 0 2.501 2.035 4.537 4.537 4.537h27.438v-2.816h-1.001v-3.441h1.001z"></path>
<path d="M7.365 27.307h0.939v0.939h-0.939v-0.939z"></path>
<path d="M8.648 13.949l0.209 0.139c0.081 0.054 2.054 1.33 7.143 1.33s7.062-1.276 7.143-1.33l0.209-0.139v-7.901l2.816-0.939v4.431c-0.721 0.205-1.251 0.869-1.251 1.655v2.346h3.441v-2.346c0-0.786-0.53-1.45-1.251-1.655v-4.744l1.64-0.547-4.929-1.643-0.297 0.89 2.257 0.752-9.779 3.26-9.779-3.26 9.779-3.26 6.631 2.21 0.297-0.89-6.928-2.309-12.747 4.249 5.395 1.798v7.901zM27.419 11.195v1.408h-1.564v-1.408c0-0.431 0.351-0.782 0.782-0.782s0.782 0.351 0.782 0.782zM9.586 6.36l6.414 2.138 6.414-2.138v3.677h-1.158v0.939h1.158v0.939h-2.034v0.939h2.034v0.566c-0.605 0.295-2.551 1.061-6.414 1.061-3.866 0-5.812-0.768-6.414-1.061v-7.059z"></path>
<path d="M5.488 27.307h0.939v0.939h-0.939v-0.939z"></path>
<path d="M18.503 11.914h0.939v0.939h-0.939v-0.939z"></path>
</symbol>
<symbol id="icon-audit" viewBox="0 0 32 32">
<path d="M31.467 0c-0 0-0 0-0 0h-30.933c-0.294-0-0.533 0.239-0.533 0.533 0 0 0 0 0 0v10.667h1.067v-10.133h29.867v11.733h-18.667v1.067h19.2c0.294 0 0.533-0.239 0.533-0.533 0-0 0-0 0-0v-12.8c0-0.294-0.239-0.533-0.533-0.533z"></path>
<path d="M28.267 2.667h-10.667v1.067h10.667v-1.067z"></path>
<path d="M29.867 5.867h-10.667v1.067h10.667v-1.067z"></path>
<path d="M27.733 9.067h-10.667v1.067h10.667v-1.067z"></path>
<path d="M17.024 4.598c-0.365-0.878-1.373-1.293-2.25-0.928-0.015 0.006-0.030 0.013-0.045 0.019l-4.325 2.243c0.171-0.353 0.26-0.741 0.262-1.133 0-1.473-1.194-2.667-2.667-2.667s-2.667 1.194-2.667 2.667c0.002 0.579 0.194 1.141 0.547 1.6h-0.022c-1.514 0.010-2.865 0.951-3.4 2.368l-1.424 4.907c-0.339 0.88 0.1 1.869 0.98 2.208 0.401 0.155 0.846 0.152 1.246-0.007 0.459-0.185 0.817-0.559 0.981-1.026l0.558-1.775v7.719c-0.459-0.353-1.021-0.545-1.6-0.547-1.471-0.002-2.664 1.188-2.667 2.659-0.001 0.72 0.29 1.41 0.806 1.912-0.819 0.419-1.336 1.26-1.339 2.179v4.469c-0 0.294 0.239 0.533 0.533 0.533 0 0 0 0 0 0h5.333c0.294 0 0.533-0.239 0.533-0.533 0-0 0-0 0-0v-4.469c-0.003-0.756-0.354-1.468-0.952-1.931h4.037c-0.598 0.462-0.949 1.175-0.952 1.931v4.469c-0 0.294 0.239 0.533 0.533 0.533 0 0 0 0 0 0h5.333c0.294 0 0.533-0.239 0.533-0.533 0-0 0-0 0-0v-4.469c-0.003-0.92-0.52-1.761-1.339-2.179 1.053-1.028 1.073-2.715 0.046-3.768-0.633-0.648-1.552-0.931-2.44-0.749v-10.91l4.896-2.542c0.878-0.365 1.293-1.373 0.928-2.25zM8 3.2c0.884 0 1.6 0.716 1.6 1.6s-0.716 1.6-1.6 1.6c-0.883-0.001-1.599-0.717-1.6-1.6s0.716-1.6 1.6-1.6zM3.2 21.313c0.884 0 1.6 0.716 1.6 1.6s-0.716 1.6-1.6 1.6-1.6-0.716-1.6-1.6c0.001-0.883 0.717-1.599 1.6-1.6zM5.333 30.933h-4.267v-3.936c0.001-0.771 0.626-1.396 1.398-1.397h1.471c0.771 0.001 1.397 0.626 1.398 1.397v3.936zM13.867 26.997v3.936h-4.267v-3.936c0.001-0.771 0.626-1.396 1.398-1.397h1.471c0.771 0.001 1.397 0.626 1.398 1.397zM11.733 21.313c0.883 0.001 1.599 0.717 1.6 1.6s-0.716 1.6-1.6 1.6c-0.884 0-1.6-0.716-1.6-1.6s0.716-1.6 1.6-1.6zM16.048 5.488c-0.071 0.183-0.218 0.327-0.403 0.395l-5.225 2.71c-0.177 0.092-0.288 0.274-0.288 0.473v11.727c-0.999 0.739-1.345 2.076-0.83 3.206h-0.77v-9.067h-1.067v9.067h-1.837c0.152-0.335 0.232-0.699 0.235-1.067h0.002v-13.333c-0-0.295-0.239-0.533-0.533-0.533-0.233 0-0.439 0.151-0.509 0.373l-1.593 5.068c-0.121 0.333-0.488 0.505-0.821 0.384-0.023-0.008-0.046-0.018-0.068-0.029-0.308-0.159-0.438-0.53-0.298-0.847l1.424-4.907c0.384-0.986 1.332-1.637 2.39-1.642h3.776c0.085 0 0.17-0.020 0.246-0.060l5.301-2.752c0.318-0.133 0.685 0.003 0.839 0.311 0.082 0.162 0.092 0.352 0.028 0.522z"></path>
<path d="M22.128 24.818c1.055-1.028 1.077-2.716 0.049-3.771s-2.716-1.077-3.771-0.049c-1.055 1.028-1.077 2.716-0.049 3.771 0.016 0.017 0.033 0.033 0.049 0.049-0.819 0.419-1.336 1.26-1.339 2.179v4.469c-0 0.294 0.239 0.533 0.533 0.533 0 0 0 0 0 0h5.333c0.294 0 0.533-0.239 0.533-0.533 0-0 0-0 0-0v-4.469c-0.003-0.92-0.52-1.761-1.339-2.179zM20.267 21.314c0.884 0 1.6 0.716 1.6 1.6s-0.716 1.6-1.6 1.6c-0.884 0-1.6-0.716-1.6-1.6s0.717-1.599 1.6-1.6zM22.4 30.933h-4.267v-3.936c0.001-0.771 0.626-1.396 1.398-1.397h1.471c0.771 0.001 1.397 0.626 1.398 1.397v3.936z"></path>
<path d="M30.661 24.818c1.055-1.028 1.077-2.716 0.049-3.771s-2.716-1.077-3.771-0.049c-1.055 1.028-1.077 2.716-0.049 3.771 0.016 0.017 0.033 0.033 0.049 0.049-0.819 0.419-1.336 1.26-1.339 2.179v4.469c-0 0.294 0.239 0.533 0.533 0.533 0 0 0 0 0 0h5.333c0.294 0 0.533-0.239 0.533-0.533 0-0 0-0 0-0v-4.469c-0.003-0.92-0.52-1.761-1.339-2.179zM28.8 21.314c0.884 0 1.6 0.716 1.6 1.6s-0.716 1.6-1.6 1.6c-0.884 0-1.6-0.716-1.6-1.6s0.717-1.599 1.6-1.6zM30.933 30.933h-4.267v-3.936c0.001-0.771 0.626-1.396 1.398-1.397h1.471c0.771 0.001 1.397 0.626 1.398 1.397v3.936z"></path>
</symbol>
  </defs>
</svg>