<svg xmlns="http://www.w3.org/2000/svg" aria-hidden="true" style="position:absolute;width:0;height:0;overflow:hidden">
  <defs>
    <symbol id="icon-play" viewBox="0 0 28 32">
<path d="M0.473 31.855v-31.492l27.273 15.746-27.273 15.746z"></path>
</symbol>
<symbol id="icon-untitled" viewBox="0 0 45 32">
<path d="M0.404 29.983c1.885-1.972 3.366-3.81 4.444-5.513s1.616-3.093 1.616-4.168c0-0.627-0.224-1.21-0.673-1.748-0.359-0.538-0.943-1.12-1.751-1.748-1.257-0.986-2.244-2.017-2.962-3.092s-1.077-2.51-1.077-4.303c0-2.779 0.853-5.020 2.558-6.723 1.706-1.793 3.86-2.689 6.464-2.689 2.783 0 5.027 0.896 6.733 2.689 1.795 1.703 2.693 3.944 2.693 6.723 0 3.496-1.481 7.35-4.444 11.563-2.873 4.123-6.733 7.798-11.58 11.025l-2.020-2.017zM26.527 29.983c1.885-1.972 3.366-3.81 4.444-5.513s1.616-3.093 1.616-4.168c0-0.627-0.225-1.21-0.673-1.748-0.359-0.538-0.943-1.12-1.751-1.748-1.257-0.986-2.244-2.017-2.962-3.092s-1.077-2.51-1.077-4.303c0-2.779 0.853-5.020 2.558-6.723 1.706-1.793 3.86-2.689 6.464-2.689 2.783 0 5.027 0.896 6.733 2.689 1.795 1.703 2.693 3.944 2.693 6.723 0 3.496-1.481 7.35-4.444 11.563-2.873 4.123-6.733 7.798-11.581 11.025l-2.020-2.017z"></path>
</symbol>
<symbol id="icon-arrow-left" viewBox="0 0 60 32">
<path d="M15.222 1.724c0.25 0.104 0.478 0.256 0.669 0.448s0.344 0.419 0.448 0.669 0.157 0.519 0.157 0.79c0 0.271-0.053 0.54-0.157 0.79s-0.256 0.478-0.448 0.669l-8.851 8.847h50.624c0.547 0 1.071 0.217 1.458 0.604s0.604 0.911 0.604 1.458-0.217 1.071-0.604 1.458c-0.386 0.387-0.911 0.604-1.458 0.604h-50.624l8.851 8.847c0.387 0.387 0.605 0.912 0.605 1.459s-0.217 1.072-0.605 1.459c-0.387 0.387-0.912 0.605-1.459 0.605s-1.072-0.218-1.459-0.605l-12.368-12.368c-0.192-0.192-0.344-0.419-0.448-0.669s-0.157-0.519-0.157-0.79c0-0.271 0.053-0.54 0.157-0.79s0.256-0.478 0.448-0.669l12.368-12.368c0.191-0.192 0.419-0.344 0.669-0.448s0.519-0.157 0.79-0.157c0.271 0 0.54 0.054 0.79 0.157z"></path>
</symbol>
<symbol id="icon-arrow-right" viewBox="0 0 67 32">
<path d="M49.337 0.174c-0.278 0.115-0.53 0.284-0.742 0.497s-0.382 0.464-0.497 0.742-0.175 0.575-0.175 0.876c0 0.301 0.059 0.598 0.175 0.876s0.284 0.53 0.497 0.742l9.812 9.808h-56.121c-0.606 0-1.187 0.241-1.616 0.669s-0.669 1.010-0.669 1.616c0 0.606 0.241 1.187 0.669 1.616s1.010 0.669 1.616 0.669h56.122l-9.812 9.808c-0.429 0.429-0.67 1.011-0.67 1.618s0.241 1.189 0.67 1.618c0.429 0.429 1.011 0.67 1.618 0.67s1.189-0.241 1.618-0.67l13.711-13.711c0.213-0.212 0.382-0.465 0.497-0.742s0.174-0.575 0.174-0.876c0-0.301-0.059-0.598-0.174-0.876s-0.284-0.53-0.497-0.742l-13.711-13.711c-0.212-0.213-0.465-0.382-0.742-0.497s-0.575-0.174-0.876-0.174c-0.301 0-0.598 0.059-0.876 0.174z"></path>
</symbol>
<symbol id="icon-audit" viewBox="0 0 32 32">
<path fill="#fff" style="fill: var(--color1, #fff)" d="M0 0h32v32h-32v-32z"></path>
<path fill="#ff7b52" style="fill: var(--color2, #ff7b52)" d="M31.467 0c-0 0-0 0-0 0h-30.933c-0.294-0-0.533 0.239-0.533 0.533 0 0 0 0 0 0v10.667h1.067v-10.133h29.867v11.733h-18.667v1.067h19.2c0.294 0 0.533-0.239 0.533-0.533 0-0 0-0 0-0v-12.8c0-0.294-0.239-0.533-0.533-0.533z"></path>
<path fill="#ff7b52" style="fill: var(--color2, #ff7b52)" d="M28.267 2.667h-10.667v1.067h10.667v-1.067z"></path>
<path fill="#ff7b52" style="fill: var(--color2, #ff7b52)" d="M29.867 5.867h-10.667v1.067h10.667v-1.067z"></path>
<path fill="#ff7b52" style="fill: var(--color2, #ff7b52)" d="M27.733 9.067h-10.667v1.067h10.667v-1.067z"></path>
<path fill="#ff7b52" style="fill: var(--color2, #ff7b52)" d="M17.024 4.598c-0.365-0.878-1.373-1.293-2.25-0.928-0.015 0.006-0.030 0.013-0.045 0.019l-4.325 2.243c0.171-0.353 0.26-0.741 0.262-1.133 0-1.473-1.194-2.667-2.667-2.667s-2.667 1.194-2.667 2.667c0.002 0.579 0.194 1.141 0.547 1.6h-0.022c-1.514 0.010-2.865 0.951-3.4 2.368l-1.424 4.907c-0.339 0.88 0.1 1.869 0.98 2.208 0.401 0.155 0.846 0.152 1.246-0.007 0.459-0.185 0.817-0.559 0.981-1.026l0.558-1.775v7.719c-0.459-0.353-1.021-0.545-1.6-0.547-1.471-0.002-2.664 1.188-2.667 2.659-0.001 0.72 0.29 1.41 0.806 1.912-0.819 0.419-1.336 1.26-1.339 2.179v4.469c-0 0.294 0.239 0.533 0.533 0.533 0 0 0 0 0 0h5.333c0.294 0 0.533-0.239 0.533-0.533 0-0 0-0 0-0v-4.469c-0.003-0.756-0.354-1.468-0.952-1.931h4.037c-0.598 0.462-0.949 1.175-0.952 1.931v4.469c-0 0.294 0.239 0.533 0.533 0.533 0 0 0 0 0 0h5.333c0.294 0 0.533-0.239 0.533-0.533 0-0 0-0 0-0v-4.469c-0.003-0.92-0.52-1.761-1.339-2.179 1.053-1.028 1.073-2.715 0.046-3.768-0.633-0.648-1.552-0.931-2.44-0.749v-10.91l4.896-2.542c0.878-0.365 1.293-1.373 0.928-2.25zM8 3.2c0.884 0 1.6 0.716 1.6 1.6s-0.716 1.6-1.6 1.6c-0.883-0.001-1.599-0.717-1.6-1.6s0.716-1.6 1.6-1.6zM3.2 21.313c0.884 0 1.6 0.716 1.6 1.6s-0.716 1.6-1.6 1.6-1.6-0.716-1.6-1.6c0.001-0.883 0.717-1.599 1.6-1.6zM5.333 30.933h-4.267v-3.936c0.001-0.771 0.626-1.396 1.398-1.397h1.471c0.771 0.001 1.397 0.626 1.398 1.397v3.936zM13.867 26.997v3.936h-4.267v-3.936c0.001-0.771 0.626-1.396 1.398-1.397h1.471c0.771 0.001 1.397 0.626 1.398 1.397zM11.733 21.313c0.883 0.001 1.599 0.717 1.6 1.6s-0.716 1.6-1.6 1.6c-0.884 0-1.6-0.716-1.6-1.6s0.716-1.6 1.6-1.6zM16.048 5.488c-0.071 0.183-0.218 0.327-0.403 0.395l-5.225 2.71c-0.177 0.092-0.288 0.274-0.288 0.473v11.727c-0.999 0.739-1.345 2.076-0.83 3.206h-0.77v-9.067h-1.067v9.067h-1.837c0.152-0.335 0.232-0.699 0.235-1.067h0.002v-13.333c-0-0.295-0.239-0.533-0.533-0.533-0.233 0-0.439 0.151-0.509 0.373l-1.593 5.068c-0.121 0.333-0.488 0.505-0.821 0.384-0.023-0.008-0.046-0.018-0.068-0.029-0.308-0.159-0.438-0.53-0.298-0.847l1.424-4.907c0.384-0.986 1.332-1.637 2.39-1.642h3.776c0.085 0 0.17-0.020 0.246-0.060l5.301-2.752c0.318-0.133 0.685 0.003 0.839 0.311 0.082 0.162 0.092 0.352 0.028 0.522z"></path>
<path fill="#ff7b52" style="fill: var(--color2, #ff7b52)" d="M22.128 24.818c1.055-1.028 1.077-2.716 0.049-3.771s-2.716-1.077-3.771-0.049c-1.055 1.028-1.077 2.716-0.049 3.771 0.016 0.017 0.033 0.033 0.049 0.049-0.819 0.419-1.336 1.26-1.339 2.179v4.469c-0 0.294 0.239 0.533 0.533 0.533 0 0 0 0 0 0h5.333c0.294 0 0.533-0.239 0.533-0.533 0-0 0-0 0-0v-4.469c-0.003-0.92-0.52-1.761-1.339-2.179zM20.267 21.314c0.884 0 1.6 0.716 1.6 1.6s-0.716 1.6-1.6 1.6c-0.884 0-1.6-0.716-1.6-1.6s0.717-1.599 1.6-1.6zM22.4 30.933h-4.267v-3.936c0.001-0.771 0.626-1.396 1.398-1.397h1.471c0.771 0.001 1.397 0.626 1.398 1.397v3.936z"></path>
<path fill="#ff7b52" style="fill: var(--color2, #ff7b52)" d="M30.661 24.818c1.055-1.028 1.077-2.716 0.049-3.771s-2.716-1.077-3.771-0.049c-1.055 1.028-1.077 2.716-0.049 3.771 0.016 0.017 0.033 0.033 0.049 0.049-0.819 0.419-1.336 1.26-1.339 2.179v4.469c-0 0.294 0.239 0.533 0.533 0.533 0 0 0 0 0 0h5.333c0.294 0 0.533-0.239 0.533-0.533 0-0 0-0 0-0v-4.469c-0.003-0.92-0.52-1.761-1.339-2.179zM28.8 21.314c0.884 0 1.6 0.716 1.6 1.6s-0.716 1.6-1.6 1.6c-0.884 0-1.6-0.716-1.6-1.6s0.717-1.599 1.6-1.6zM30.933 30.933h-4.267v-3.936c0.001-0.771 0.626-1.396 1.398-1.397h1.471c0.771 0.001 1.397 0.626 1.398 1.397v3.936z"></path>
</symbol>
<!-- footer -->
<symbol id="icon-guarantee" viewBox="0 0 32 32">
<path d="M12.332 0.429c-3.785 0.898-8.156 4.137-10.146 7.571-5.268 8.937-0.39 20.683 9.678 23.415 12.644 3.434 23.61-8.976 18.966-21.385-0.976-2.576-4.176-6.322-6.751-7.805-3.395-1.99-7.922-2.693-11.746-1.795zM21.307 4.683c2.419 1.21 4.8 3.551 6.010 6.049 0.78 1.6 0.976 2.537 0.976 5.307 0 2.966-0.117 3.59-1.171 5.62-4.761 9.288-17.99 8.976-22.478-0.546-3.083-6.556 0.39-14.4 7.454-16.976 2.498-0.898 6.712-0.624 9.21 0.546z"></path>
<path d="M17.483 13.151l-4.605 4.566-3.122-3.044-1.483 1.444-1.444 1.444 3.044 3.005 3.005 3.044 12.254-12.254-1.327-1.405c-0.741-0.741-1.405-1.366-1.561-1.366-0.117 0-2.263 2.068-4.761 4.566z"></path>
</symbol>
<symbol id="icon-safe" viewBox="0 0 32 32">
<path d="M0 16c0-8.837 7.163-16 16-16s16 7.163 16 16c0 8.837-7.163 16-16 16s-16-7.163-16-16zM28.522 16c0-6.915-5.605-12.523-12.522-12.523s-12.521 5.609-12.521 12.523c0 6.915 5.605 12.522 12.521 12.522s12.522-5.607 12.522-12.522zM20.629 11.413v2.496c0.992 0 1.984 0.998 1.984 2.163v5.824c0 0.998-0.992 1.997-2.149 1.997h-9.093c-0.992 0-1.984-0.998-1.984-2.163v-5.824c0-0.998 0.992-1.997 1.984-1.997v-2.496c0-2.33 2.315-4.16 4.629-4.16s4.629 1.83 4.629 4.16zM13.52 13.909h4.96v-2.496c0-1.331-1.157-2.163-2.48-2.163s-2.48 0.832-2.48 2.163v2.496z"></path>
</symbol>
<symbol id="icon-support" viewBox="0 0 32 32">
<path d="M12.332 0.429c-3.785 0.898-8.156 4.137-10.146 7.571-5.268 8.937-0.39 20.683 9.678 23.415 12.644 3.434 23.61-8.976 18.966-21.385-0.976-2.576-4.176-6.322-6.751-7.805-3.395-1.99-7.922-2.693-11.746-1.795zM12.878 7.688c0.312 0.702 0.156 0.976-0.976 1.639-0.741 0.429-1.834 1.444-2.419 2.302l-1.132 1.522-1.639-0.624c-0.898-0.351-1.795-0.819-2.029-1.054-0.585-0.585 1.99-4.176 3.981-5.541 2.849-1.912 2.771-1.951 4.215 1.756zM23.298 5.932c1.522 1.015 3.59 3.551 4.137 5.034 0.156 0.507-0.234 0.819-1.795 1.405l-1.99 0.78-0.82-1.21c-0.429-0.624-1.522-1.717-2.419-2.419l-1.6-1.249 0.937-1.99c0.624-1.405 1.093-1.951 1.405-1.756 0.273 0.156 1.249 0.78 2.146 1.405zM18.341 11.902c2.732 1.405 3.122 5.698 0.741 7.688-2.185 1.834-5.581 1.366-6.985-0.937-2.615-4.293 1.795-9.054 6.244-6.751zM11.707 22.712l1.483 0.937-0.819 1.951c-0.429 1.054-0.859 1.99-0.898 2.068-0.234 0.273-3.512-1.873-4.488-2.966-0.585-0.585-1.405-1.795-1.873-2.654l-0.819-1.522 4.059-1.717 0.937 1.483c0.546 0.78 1.639 1.873 2.419 2.419zM26.537 20.098c1.171 0.585 1.171 0.624 0.585 1.756-0.937 1.834-2.888 3.863-4.761 4.956-0.937 0.546-1.756 0.937-1.834 0.859-0.039-0.078-0.468-1.054-0.898-2.107l-0.78-1.951 1.444-0.937c0.82-0.507 1.873-1.561 2.381-2.381 1.015-1.6 1.171-1.6 3.863-0.195z"></path>
</symbol>
<!-- footer social -->
<symbol id="icon-twitter" viewBox="0 0 40 32">
<path d="M39.389 3.801c-1.448 0.625-3.025 1.075-4.648 1.25 1.686-1.002 2.948-2.584 3.55-4.45-1.582 0.941-3.315 1.601-5.122 1.95-0.755-0.807-1.669-1.451-2.684-1.89s-2.109-0.664-3.215-0.662c-4.473 0-8.071 3.626-8.071 8.076 0 0.625 0.076 1.25 0.199 1.851-6.698-0.35-12.672-3.55-16.644-8.45-0.724 1.236-1.103 2.643-1.098 4.076 0 2.802 1.425 5.273 3.598 6.727-1.28-0.050-2.531-0.402-3.65-1.027v0.099c0 3.924 2.774 7.176 6.471 7.924-0.694 0.18-1.408 0.273-2.125 0.275-0.525 0-1.022-0.052-1.524-0.123 1.022 3.2 4 5.524 7.546 5.6-2.774 2.173-6.248 3.451-10.021 3.451-0.677 0-1.302-0.024-1.95-0.099 3.579 2.296 7.825 3.621 12.398 3.621 14.845 0 22.968-12.298 22.968-22.973 0-0.35 0-0.701-0.024-1.051 1.572-1.15 2.949-2.575 4.047-4.175z"></path>
</symbol>
<symbol id="icon-fb" viewBox="0 0 34 32">
<path d="M16.988 0c-8.835 0-15.998 7.163-15.998 15.998 0 7.984 5.85 14.602 13.499 15.806v-11.181h-4.064v-4.626h4.064v-3.525c0-4.013 2.389-6.226 6.042-6.226 1.75 0 3.584 0.312 3.584 0.312v3.934h-2.022c-1.984 0-2.605 1.235-2.605 2.501v3h4.434l-0.709 4.626h-3.725v11.181c7.65-1.198 13.499-7.818 13.499-15.803 0-8.835-7.163-15.998-15.998-15.998z"></path>
</symbol>
<symbol id="icon-rss" viewBox="0 0 34 32">
<path d="M4.223 0c15.923 0 28.882 12.921 28.95 28.828v0.001h0.002v1.683h-0.019c-0.042 0.373-0.209 0.721-0.474 0.988s-0.612 0.436-0.985 0.48v0.020h-2.992v-0.003c-0.405-0.008-0.793-0.164-1.092-0.437s-0.488-0.645-0.533-1.048h-0.019v-1.683h0.017c-0.068-12.548-10.293-22.735-22.856-22.735-0.012 0-0.024-0.001-0.036-0.002-0.010-0.001-0.020-0.001-0.030-0.002v0.023h-1.683v-0.019c-0.373-0.042-0.721-0.209-0.988-0.474s-0.436-0.612-0.48-0.985h-0.020v-2.992h0.003c0.008-0.405 0.164-0.793 0.437-1.092s0.646-0.488 1.048-0.533v-0.019h1.683v0.003c0.010-0 0.020-0.001 0.029-0.002 0.012-0.001 0.024-0.002 0.036-0.002zM4.223 11.53c-0.012 0-0.024 0.001-0.036 0.002h-0c-0.010 0.001-0.020 0.001-0.029 0.002v-0.003h-1.683v0.019c-0.402 0.045-0.775 0.234-1.048 0.533s-0.428 0.687-0.437 1.092h-0.003v2.992h0.020c0.044 0.373 0.214 0.72 0.48 0.985s0.614 0.432 0.988 0.474v0.019h1.683v-0.023c0.010 0 0.020 0.001 0.030 0.002 0.012 0.001 0.024 0.002 0.036 0.002 6.206 0 11.259 5.015 11.326 11.205h-0.016v1.683h0.019c0.045 0.402 0.234 0.775 0.533 1.048s0.687 0.428 1.092 0.437v0.003h2.992v-0.020c0.373-0.044 0.72-0.214 0.985-0.48s0.432-0.614 0.474-0.988h0.019v-1.683h-0.003c-0.067-9.551-7.855-17.299-17.42-17.299zM5.545 23.263c-0.56 0-1.115 0.11-1.633 0.325s-0.988 0.529-1.384 0.925c-0.396 0.396-0.71 0.867-0.925 1.384s-0.324 1.073-0.324 1.633c0 0.56 0.11 1.115 0.325 1.633s0.529 0.988 0.925 1.384c0.396 0.396 0.867 0.71 1.384 0.925s1.073 0.325 1.633 0.325 1.115-0.11 1.633-0.325c0.518-0.214 0.988-0.529 1.384-0.925s0.71-0.867 0.925-1.384c0.214-0.518 0.325-1.073 0.325-1.633s-0.11-1.116-0.324-1.633-0.529-0.989-0.925-1.385c-0.396-0.396-0.867-0.711-1.385-0.925s-1.073-0.325-1.634-0.324z"></path>
</symbol>
<symbol id="icon-insta" viewBox="0 0 34 32">
<path d="M17.171 10.664c-2.938 0-5.336 2.398-5.336 5.336s2.398 5.336 5.336 5.336c2.938 0 5.336-2.398 5.336-5.336s-2.398-5.336-5.336-5.336zM33.174 16c0-2.21 0.020-4.399-0.104-6.604-0.124-2.562-0.708-4.835-2.582-6.709-1.877-1.877-4.147-2.458-6.708-2.582-2.21-0.124-4.399-0.104-6.604-0.104-2.21 0-4.399-0.020-6.604 0.104-2.562 0.124-4.835 0.708-6.709 2.582-1.877 1.877-2.458 4.147-2.582 6.709-0.124 2.21-0.104 4.399-0.104 6.604s-0.020 4.399 0.104 6.604c0.124 2.562 0.708 4.835 2.582 6.708 1.877 1.877 4.147 2.458 6.709 2.582 2.21 0.124 4.399 0.104 6.604 0.104 2.209 0 4.399 0.020 6.604-0.104 2.562-0.124 4.835-0.708 6.708-2.582 1.877-1.877 2.458-4.147 2.582-6.708 0.128-2.205 0.104-4.395 0.104-6.604zM17.171 24.21c-4.543 0-8.21-3.667-8.21-8.21s3.666-8.21 8.21-8.21c4.543 0 8.209 3.666 8.209 8.21s-3.666 8.21-8.209 8.21zM25.717 9.372c-1.061 0-1.917-0.857-1.917-1.917s0.856-1.917 1.917-1.917c1.061 0 1.917 0.857 1.917 1.917 0 0.252-0.049 0.501-0.145 0.734s-0.237 0.444-0.416 0.622c-0.178 0.178-0.39 0.319-0.622 0.416s-0.482 0.146-0.734 0.145z"></path>
</symbol>
  </defs>
</svg>