<svg aria-hidden="true" style="position: absolute; width: 0; height: 0; overflow: hidden;" version="1.1" xmlns="http://www.w3.org/2000/svg" xmlns:xlink="http://www.w3.org/1999/xlink">
<defs>
<symbol id="icon-sox" viewBox="0 0 32 32">
<path d="M31.987 25.743v-2.816h-3.003v-1.877h-1.001v-1.564h1.001v-2.816h-7.486v0.939h6.548v0.939h-19.42v0.939h18.419v1.564h-20.43c-0.431 0-0.782-0.351-0.782-0.782s0.351-0.782 0.782-0.782h1.073v-0.939h-1.073c-0.949 0-1.721 0.772-1.721 1.721s0.772 1.721 1.721 1.721h21.431v0.939h-16.175v0.939h19.178v0.939h-26.499c-1.466 0-2.659 1.193-2.659 2.659s1.193 2.659 2.659 2.659h22.106v-0.939h-22.106c-0.949 0-1.721-0.772-1.721-1.721s0.772-1.721 1.721-1.721h25.498v1.564h-20.805v0.939h20.805v0.939h-2.454v0.939h3.455v0.939h-26.5c-1.984 0-3.598-1.614-3.598-3.598s1.614-3.598 3.598-3.598h6.382v-0.939h-4.317c-1.466 0-2.659-1.193-2.659-2.659s1.193-2.659 2.659-2.659h13.945v-0.939h-13.945c-1.984 0-3.598 1.614-3.598 3.598 0 1.060 0.461 2.014 1.193 2.673-2.343 0.175-4.197 2.135-4.197 4.522 0 2.501 2.035 4.537 4.537 4.537h27.438v-2.816h-1.001v-3.441h1.001z"></path>
<path d="M7.365 27.307h0.939v0.939h-0.939v-0.939z"></path>
<path d="M8.648 13.949l0.209 0.139c0.081 0.054 2.054 1.33 7.143 1.33s7.062-1.276 7.143-1.33l0.209-0.139v-7.901l2.816-0.939v4.431c-0.721 0.205-1.251 0.869-1.251 1.655v2.346h3.441v-2.346c0-0.786-0.53-1.45-1.251-1.655v-4.744l1.64-0.547-4.929-1.643-0.297 0.89 2.257 0.752-9.779 3.26-9.779-3.26 9.779-3.26 6.631 2.21 0.297-0.89-6.928-2.309-12.747 4.249 5.395 1.798v7.901zM27.419 11.195v1.408h-1.564v-1.408c0-0.431 0.351-0.782 0.782-0.782s0.782 0.351 0.782 0.782zM9.586 6.36l6.414 2.138 6.414-2.138v3.677h-1.158v0.939h1.158v0.939h-2.034v0.939h2.034v0.566c-0.605 0.295-2.551 1.061-6.414 1.061-3.866 0-5.812-0.768-6.414-1.061v-7.059z"></path>
<path d="M5.488 27.307h0.939v0.939h-0.939v-0.939z"></path>
<path d="M18.503 11.914h0.939v0.939h-0.939v-0.939z"></path>
</symbol>
</defs>
</svg>
